<svg xmlns="http://www.w3.org/2000/svg" width="42" height="40" fill="none" color="#F5F6F8" viewBox="0 0 42 40" class="nsv_survey_question_star_label_icon" value="1.5">
  <path fill="currentcolor" d="M19.613.948c.49-1.264 2.279-1.264 2.77 0l4.84 12.458 13.367.742c1.355.075 1.908 1.78.855 2.636L31.07 25.218l3.424 12.91c.348 1.312-1.099 2.365-2.24 1.63l-11.257-7.24-11.258 7.24c-1.14.735-2.587-.318-2.24-1.63l3.424-12.91L.551 16.784c-1.054-.856-.501-2.56.855-2.636l13.366-.742L19.613.948Z"></path>
  <path stroke="#E7E7E7" stroke-opacity="0.6" stroke-width="0.99" d="m26.762 13.586.116.297.318.018 13.366.742c.904.05 1.273 1.186.57 1.757L30.76 24.834l-.248.202.082.31 3.423 12.91c.232.874-.732 1.576-1.493 1.087l-11.257-7.241-.268-.172-.268.172-11.258 7.24c-.76.49-1.725-.212-1.493-1.086l3.424-12.91.082-.31-.249-.202L.863 16.4c-.702-.571-.334-1.707.57-1.757l13.366-.742.319-.018.115-.297 4.842-12.46c.327-.841 1.519-.841 1.846 0l4.841 12.46Z"></path>
</svg>